<?xml version="1.0" encoding="utf-8"?>
<!-- Generator: Adobe Illustrator 16.0.0, SVG Export Plug-In . SVG Version: 6.00 Build 0)  -->
<!DOCTYPE svg PUBLIC "-//W3C//DTD SVG 1.1//EN" "http://www.w3.org/Graphics/SVG/1.1/DTD/svg11.dtd">
<svg version="1.1" id="Layer_1" xmlns="http://www.w3.org/2000/svg" xmlns:xlink="http://www.w3.org/1999/xlink" x="0px" y="0px"
	 width="340px" height="80px" viewBox="0 0 340 80" enable-background="new 0 0 340 80" xml:space="preserve">
<g>
	<path fill="#281A08" d="M6.696,2.02h28.381c0,0,23.403-1.978,23.403,17.72c0,19.695-20.175,18.215-24.027,18.215L6.543,37.917
		v-8.715h28.965c0,0,12.721,0.586,12.721-9.461c0-9.704-8.599-9.024-13.033-9.024c-4.436,0-28.505,0-28.505,0L6.696,2.02z"/>
	<path fill="#281A08" d="M54.663,44.452c4.312,2.586,8.194,7.236,8.194,14.85c0,19.693-20.187,18.584-24.038,18.584L6.543,77.913
		v-8.727l33.117-0.006c0,0,12.861,0.168,12.944-9.879c0.057-6.904-4.334-12.16-8.529-14.85H54.663z"/>
</g>
<path fill="#281A08" d="M88.121,44.452h12.132c0,5.473,0,13.375,0,17.23c0,5.652,3.393,7.504,6.754,7.504c3.362,0,30.122,0,33.163,0
	l0.047,8.85c-3.201,0-35.854,0-40.016,0s-12.081-2.693-12.081-13.932C88.121,51.669,88.121,44.452,88.121,44.452z"/>
<path fill="#281A08" d="M140.256,29.254c-3.042,0-30.953-0.015-34.314-0.015c-3.362,0-5.741-0.325-5.741-4.181
	c0-0.604,0-9.37,0.059-10.043c0-4.045,2.083-4.3,5.444-4.3c3.361,0,31.431,0,34.472,0l0.004-8.696c-3.201,0-39.108,0-39.108,0
	S88.121,1.155,88.121,15.005c0,4.831,0,9.492,0,9.664c0,12.436,9.28,13.248,13.441,13.248c4.162,0,35.417,0,38.618,0L140.256,29.254
	z"/>
<path fill="#281A08" d="M227.051,2.039c-1.825,2.014-18.777,22.28-20.931,24.403c-3.582,3.531-10.001,2.78-15.2,2.78
	c-5.28,0-6.182-3.998-6.182-6.715c0-2.72-0.021-18.009-0.021-20.468h-12.074c0,2.588,0.045,23.817,0.045,27.183
	c0,2.673,1.254,8.726,12.005,8.726c2.023,0,20.503-0.03,20.713-0.031c2.665-0.021,6.673-1.624,11.279-7.068
	c1.363-1.611,21.047-25.292,24.243-28.81H227.051z"/>
<path fill="#281A08" d="M215.167,49.903c-2.535-2.738-4.843-5.451-12.814-5.451c0,0-5.341,0-17.659,0
	c-8.832,0-11.976,6.408-11.976,9.773s0,21.107,0,23.697l12.029-0.039c0-2.459,0.02-17.684,0.02-20.404
	c0-2.717,0.799-4.252,6.079-4.252c5.199,0,4.389,0.027,4.975,0.023c4.973-0.033,7.76,0.178,10.328,2.736
	c2.145,2.133,19.759,19.771,21.781,21.9h13.842C238.378,74.255,216.601,51.45,215.167,49.903z"/>
<path fill="#281A08" d="M316.33,2.065c-1.825,2.014-18.776,22.279-20.931,24.403c-3.581,3.531-10,2.779-15.199,2.779
	c-5.28,0-6.182-3.998-6.182-6.714c0-2.72-0.021-18.01-0.021-20.468h-12.075c0,2.588,0.045,23.817,0.045,27.182
	c0,2.674,1.255,8.726,12.006,8.726c2.023,0,20.503-0.029,20.713-0.031c2.665-0.02,6.673-1.623,11.279-7.068
	c1.363-1.609,21.047-25.292,24.242-28.809H316.33z"/>
<path fill="#281A08" d="M304.446,49.929c-2.535-2.74-4.842-5.451-12.814-5.451c0,0-5.34,0-17.658,0
	c-8.833,0-11.976,6.41-11.976,9.775s0,21.107,0,23.695l12.028-0.041c0-2.457,0.021-17.682,0.021-20.4s0.799-4.254,6.079-4.254
	c5.199,0,4.388,0.027,4.975,0.023c4.972-0.033,7.76,0.178,10.328,2.736c2.145,2.135,19.759,19.771,21.781,21.9h13.842
	C327.658,74.28,305.88,51.476,304.446,49.929z"/>
</svg>
