<?xml version="1.0" encoding="utf-8"?>
<!-- Generator: Adobe Illustrator 16.0.0, SVG Export Plug-In . SVG Version: 6.00 Build 0)  -->
<!DOCTYPE svg PUBLIC "-//W3C//DTD SVG 1.1//EN" "http://www.w3.org/Graphics/SVG/1.1/DTD/svg11.dtd">
<svg version="1.1" id="Layer_1" xmlns="http://www.w3.org/2000/svg" xmlns:xlink="http://www.w3.org/1999/xlink" x="0px" y="0px"
	 width="141.732px" height="141.729px" viewBox="0 0 141.732 141.729" enable-background="new 0 0 141.732 141.729"
	 xml:space="preserve">
<path fill="#E94651" d="M0,70.865c0,39.139,31.729,70.864,70.867,70.864s70.865-31.726,70.865-70.864
	C141.732,31.726,110.006,0,70.867,0S0,31.726,0,70.865"/>
<path fill="#FFFFFF" d="M41.895,33.759h0.182c0.423-0.002,0.638,1.605,0.642,4.82l0.002,1.18c0.003,1.184-0.177,4.244-0.533,9.188
	c0,0.241,0.029,0.483,0.092,0.726c-0.056,3.168-0.082,5.684-0.081,7.549l0.008,5.91c0,0.121,0.062,0.424,0.184,0.908
	c-0.075,0.426-0.197,0.639-0.363,0.639h-0.364c-0.243,0-0.365-0.818-0.368-2.455c-0.012-10.518,0.16-17.762,0.519-21.734
	l-0.003-2.547c-0.002-1.408-0.096-2.682-0.278-3.818C41.531,34.035,41.651,33.912,41.895,33.759"/>
<path fill="none" stroke="#FFFFFF" stroke-width="0.709" stroke-miterlimit="10" d="M41.895,33.759h0.182
	c0.423-0.002,0.638,1.605,0.642,4.82l0.002,1.18c0.003,1.184-0.177,4.244-0.533,9.188c0,0.241,0.029,0.483,0.092,0.726
	c-0.056,3.168-0.082,5.684-0.081,7.549l0.008,5.91c0,0.121,0.062,0.424,0.184,0.908c-0.075,0.426-0.197,0.639-0.363,0.639h-0.364
	c-0.243,0-0.365-0.818-0.368-2.455c-0.012-10.518,0.16-17.762,0.519-21.734l-0.003-2.547c-0.002-1.408-0.096-2.682-0.278-3.818
	C41.531,34.035,41.651,33.912,41.895,33.759z"/>
<path fill="#1E1E1C" d="M80.07,40.951c1.401-2.185,3.138-3.912,5.093-5.433c2.146-1.67,4.469-3.021,7.111-3.748
	c4.707-1.285,8.555,0.246,11.108,4.405c1.367,2.224,2.19,4.582,1.846,7.248c-0.24,1.873-0.899,3.595-1.827,5.226
	c-1.754,3.078-4.144,5.625-6.747,7.985c-4.126,3.738-8.697,6.876-13.418,9.8c-2.378,1.472-4.784,2.899-7.227,4.373
	c-1.684-1.865-3.391-3.705-5.044-5.597c-4.053-4.637-7.838-9.479-10.924-14.828c-1.74-3.014-3.229-6.139-3.95-9.575
	c-0.493-2.347-0.589-4.699,0.396-6.955c0.335-0.771,0.762-1.554,1.326-2.168c2.27-2.474,5.022-4.104,8.441-4.371
	c2.247-0.172,4.259,0.567,6.078,1.843c2.591,1.811,4.409,4.278,5.89,7.02C79.018,37.65,79.703,39.176,80.07,40.951"/>
<path fill="none" stroke="#FFFFFF" stroke-width="0.709" stroke-miterlimit="10" d="M48.265,80.822h0.217
	c0.506-0.003,0.764,1.921,0.768,5.769l0.002,1.411c0.003,1.417-0.212,5.08-0.638,10.997c0,0.289,0.035,0.579,0.11,0.868
	c-0.066,3.792-0.098,6.803-0.097,9.035l0.01,7.073c0,0.145,0.073,0.508,0.219,1.087c-0.09,0.51-0.236,0.765-0.435,0.765h-0.436
	c-0.291,0-0.437-0.979-0.44-2.938c-0.014-12.588,0.192-21.258,0.62-26.012l-0.003-3.048c-0.003-1.687-0.115-3.209-0.333-4.57
	C47.828,81.152,47.972,81.004,48.265,80.822z"/>
<g>
	<path fill="#FFFFFF" d="M48.265,80.469h0.217c0.506-0.002,0.764,1.921,0.768,5.769l0.002,1.413
		c0.003,1.416-0.212,5.079-0.638,10.996c0,0.289,0.035,0.578,0.11,0.869c-0.066,3.791-0.098,6.802-0.097,9.033l0.01,7.074
		c0,0.145,0.073,0.507,0.219,1.087c-0.09,0.509-0.236,0.764-0.435,0.764h-0.436c-0.291,0-0.437-0.979-0.44-2.938
		c-0.014-12.587,0.192-21.256,0.62-26.012l-0.003-3.048c-0.003-1.685-0.115-3.209-0.333-4.569
		C47.828,80.8,47.972,80.653,48.265,80.469"/>
</g>
<path fill="none" stroke="#FFFFFF" stroke-miterlimit="10" d="M39.762,80.877c0,0,13.539-1.395,18.814-0.865
	c5.275,0.529-0.398,0.624-0.398,0.624s-14.435,0.241-17.918,0.866c-3.484,0.626-2.688-0.097-1.891-0.433
	C39.165,80.733,39.762,80.877,39.762,80.877z"/>
<path fill="none" stroke="#FFFFFF" stroke-width="0.709" stroke-miterlimit="10" d="M67.163,118.752l-0.218,0.005
	c-0.506,0.012-0.795-1.908-0.868-5.755l-0.027-1.411c-0.028-1.415,0.123-5.083,0.447-11.006c-0.006-0.29-0.045-0.578-0.125-0.868
	c0-3.791-0.021-6.802-0.061-9.034l-0.133-7.07c-0.002-0.146-0.082-0.508-0.238-1.084c0.081-0.511,0.223-0.768,0.422-0.773
	l0.436-0.006c0.291-0.005,0.454,0.973,0.493,2.932c0.232,12.583,0.179,21.255-0.167,26.016l0.056,3.048
	c0.033,1.687,0.171,3.207,0.414,4.562C67.593,118.415,67.452,118.565,67.163,118.752z"/>
<g>
	<path fill="#FFFFFF" d="M67.169,119.105l-0.217,0.004c-0.506,0.011-0.796-1.908-0.869-5.754l-0.027-1.412
		c-0.028-1.417,0.123-5.083,0.447-11.007c-0.005-0.288-0.046-0.577-0.125-0.865c0-3.792-0.021-6.803-0.061-9.034l-0.132-7.074
		c-0.004-0.145-0.083-0.505-0.24-1.082c0.083-0.512,0.224-0.77,0.422-0.771l0.437-0.008c0.291-0.006,0.454,0.971,0.492,2.93
		c0.234,12.586,0.179,21.258-0.167,26.02l0.058,3.048c0.031,1.684,0.17,3.207,0.412,4.562
		C67.6,118.766,67.459,118.915,67.169,119.105"/>
</g>
<path fill="none" stroke="#FFFFFF" stroke-miterlimit="10" d="M66.158,83.382c0.858,0.071,1.382-0.681,4.262,0.035
	c2.881,0.72,7.24,11.604,7.904,17.927c0.485,4.619-4.69,15.458-7.508,16.364c-2.819,0.907-5.127-0.213-4.847,1.048
	c0.285,1.281,0.958,0.516,2.491,0.301c1.531-0.217,4.473,0.215,7.35-6.455c2.882-6.666,3.748-10.798,2.704-14.742
	c-1.039-3.944-4.838-15.871-9.167-15.758C64.71,82.224,67.679,82.102,66.158,83.382"/>
<g>
	<path fill="#FFFFFF" d="M91.858,80.822h0.845c1.449,0.252,2.171,0.762,2.171,1.521c0,0.118-0.16,0.274-0.48,0.468h-0.485
		c-0.522-0.623-1.085-0.936-1.688-0.936c-2.009,0.683-3.017,1.307-3.017,1.871c-1.607,2.967-2.409,7.025-2.409,12.177v1.991
		c0,3.473,0.48,7.649,1.448,12.526c0.58,3.57,1.383,5.992,2.411,7.26c1.244,1.056,2.329,1.601,3.255,1.638
		c1.188,0,2.475-0.855,3.86-2.573h0.365c0.119,0,0.239,0.116,0.359,0.353v0.233c0,0.705-0.881,1.6-2.652,2.692
		c-0.744,0.312-1.428,0.468-2.05,0.468h-0.12c-1.188-0.135-2.435-0.761-3.74-1.871c-1.428-1.095-2.673-5.543-3.739-13.349
		c-0.4-1.68-0.602-4.448-0.602-8.313v-0.703c0.141-7.9,1.468-12.78,3.981-14.634C90.753,81.096,91.516,80.822,91.858,80.822"/>
	<path fill="none" stroke="#FFFFFF" stroke-width="0.709" stroke-miterlimit="10" d="M91.858,80.822h0.845
		c1.449,0.252,2.171,0.762,2.171,1.521c0,0.118-0.16,0.274-0.48,0.468h-0.485c-0.522-0.623-1.085-0.936-1.688-0.936
		c-2.009,0.683-3.017,1.307-3.017,1.871c-1.607,2.967-2.409,7.025-2.409,12.177v1.991c0,3.473,0.48,7.649,1.448,12.526
		c0.58,3.57,1.383,5.992,2.411,7.26c1.244,1.056,2.329,1.601,3.255,1.638c1.188,0,2.475-0.855,3.86-2.573h0.365
		c0.119,0,0.239,0.116,0.359,0.353v0.233c0,0.705-0.881,1.6-2.652,2.692c-0.744,0.312-1.428,0.468-2.05,0.468h-0.12
		c-1.188-0.135-2.435-0.761-3.74-1.871c-1.428-1.095-2.673-5.543-3.739-13.349c-0.4-1.68-0.602-4.448-0.602-8.313v-0.703
		c0.141-7.9,1.468-12.78,3.981-14.634C90.753,81.096,91.516,80.822,91.858,80.822z"/>
</g>
</svg>
